<svg width="176" height="158" viewBox="0 0 176 158" fill="none" xmlns="http://www.w3.org/2000/svg">
<path d="M176 60.3294C176 31.3154 157.574 0 127.806 0C106.903 0 94.2331 12.4299 88 20.9606C81.7669 12.4278 69.0966 0 48.1941 0C18.4264 0 0 31.3154 0 60.3294C0 94.6186 27.44 123.244 57.0926 149.072C58.0634 149.92 59.2198 150.329 60.3669 150.329C61.9391 150.329 63.4946 149.558 64.5415 148.083C66.3513 145.533 65.9522 141.837 63.6487 139.832C36.101 115.838 10.61 89.6006 10.61 60.3294C10.61 40.7406 22.5545 11.7554 48.1941 11.7554C72.6586 11.7554 82.8472 33.1601 83.2574 34.0506C84.154 36.029 85.9842 37.2691 87.9814 37.2794C87.9889 37.2794 87.9963 37.2794 88.0056 37.2794C89.9954 37.2794 91.8219 36.0352 92.7314 34.0732C93.1528 33.1622 103.343 11.7574 127.808 11.7574C153.447 11.7574 165.392 40.7427 165.392 60.3315C165.392 83.18 150.405 106.199 115.318 137.229C105.766 145.118 96.8726 148.034 90.9495 145.044C85.5201 142.3 82.4054 134.38 82.4054 123.312V98.7605C82.4054 95.5153 80.0295 92.8829 77.1005 92.8829H60.2463V80.4859H77.1005C80.0295 80.4859 82.4054 77.8535 82.4054 74.6082V55.9325H93.5964V74.6082C93.5964 77.8535 95.9705 80.4859 98.9014 80.4859H115.756V92.8829H98.9014C95.9723 92.8829 93.5964 95.5153 93.5964 98.7605V123.312C93.5964 126.557 95.9705 129.19 98.9014 129.19C101.83 129.19 104.206 126.557 104.206 123.312V104.636H121.061C123.99 104.636 126.366 102.004 126.366 98.7585V74.6061C126.366 71.3609 123.99 68.7285 121.061 68.7285H104.206V50.0528C104.206 46.8075 101.83 44.1751 98.9014 44.1751H77.1005C74.1714 44.1751 71.7955 46.8075 71.7955 50.0528V68.7285H54.9413C52.0122 68.7285 49.6363 71.3609 49.6363 74.6061V98.7585C49.6363 102.004 52.0122 104.636 54.9413 104.636H71.7955V123.312C71.7955 139.182 77.1729 151.001 86.5466 155.738C89.5425 157.251 92.7741 158 96.1895 158C103.833 158 112.4 154.243 121.294 146.952C121.358 146.903 121.426 146.87 121.487 146.814C121.604 146.711 121.721 146.607 121.838 146.502C123.288 145.292 124.745 143.995 126.21 142.598C152.647 118.715 176 92.1919 176 60.3294Z" fill="url(#paint0_linear_1_197)"/>
<defs>
<linearGradient id="paint0_linear_1_197" x1="0.00148495" y1="78.999" x2="176.001" y2="78.999" gradientUnits="userSpaceOnUse">
<stop stop-color="#407CE2"/>
<stop offset="0.9997" stop-color="#223A6A"/>
</linearGradient>
</defs>
</svg>
