<svg width="25" height="22" viewBox="0 0 25 22" fill="none" xmlns="http://www.w3.org/2000/svg">
<path d="M4.27906 4.88555C3.00885 4.88655 1.52604 4.39178 1.52381 3.15196C1.52169 1.97414 2.89686 1.47715 4.27292 1.47607L16.8044 1.47607C18.0808 1.47607 18.5595 2.16249 18.5595 2.87285V4.88556M22.4755 9.8448H17.9011C15.9997 9.8448 14.4583 11.3019 14.4583 13.0993C14.4583 14.8967 15.9997 16.3538 17.9011 16.3538H22.4755M17.7433 13.2543H17.9011M1.5238 3.33579V18.9884C1.5238 19.8363 2.22073 20.5237 3.08042 20.5237H21.8719C22.7316 20.5237 23.4286 19.8363 23.4286 18.9884V6.42084C23.4286 5.57292 22.7316 4.88556 21.8719 4.88556H4.25677" stroke="#2260FF" stroke-width="2" stroke-linecap="round"/>
</svg>
