<svg width="26" height="26" viewBox="0 0 26 26" fill="none" xmlns="http://www.w3.org/2000/svg">
<path fill-rule="evenodd" clip-rule="evenodd" d="M2.16626 13.0003C2.16626 12.3068 2.70492 11.7387 3.38815 11.6885L3.4867 11.6849L19.4113 11.6852L14.1363 6.00046C13.6412 5.46699 13.674 4.63471 14.2095 4.14153C14.7168 3.6743 15.4933 3.67903 15.9945 4.13442L16.0754 4.21449L23.5445 12.2634C23.9302 12.679 23.9302 13.3216 23.5445 13.7372L16.0754 21.7862C15.5804 22.3196 14.745 22.3523 14.2095 21.8591C13.7022 21.3919 13.646 20.6203 14.0625 20.0868L14.1363 20.0002L19.4108 14.316L3.4867 14.3158C2.75744 14.3158 2.16626 13.7268 2.16626 13.0003Z" fill="#FAFAFA"/>
</svg>
