<svg width="17" height="17" viewBox="0 0 17 17" fill="none" xmlns="http://www.w3.org/2000/svg">
<path fill-rule="evenodd" clip-rule="evenodd" d="M1.09156 1.08118C0 2.16237 0 3.90251 0 7.38279V14.4383C0 15.1606 0 15.5217 0.0963941 15.7149C0.30327 16.1296 0.788175 16.3286 1.23053 16.1803C1.43664 16.1111 1.69444 15.8558 2.21004 15.3451H2.21005L2.21007 15.345C2.62816 14.931 2.83721 14.7239 3.06756 14.5566C3.5503 14.2062 4.11115 13.9762 4.70265 13.8858C4.98491 13.8427 5.28055 13.8427 5.87182 13.8427H9.78289C12.8459 13.8427 14.3773 13.8427 15.4081 13.0048C15.5968 12.8514 15.7698 12.68 15.9247 12.4932C16.7707 11.4721 16.7707 9.95523 16.7707 6.92136C16.7707 3.88752 16.7707 2.37059 15.9247 1.3496C15.7698 1.16269 15.5968 0.991305 15.4081 0.83791C14.3773 0 12.8459 0 9.78289 0H7.45363C3.93995 0 2.18312 0 1.09156 1.08118ZM4.19267 8.30564C4.96452 8.30564 5.59022 7.68585 5.59022 6.92136C5.59022 6.15688 4.96452 5.53709 4.19267 5.53709C3.42082 5.53709 2.79511 6.15688 2.79511 6.92136C2.79511 7.68585 3.42082 8.30564 4.19267 8.30564ZM9.78289 6.92136C9.78289 7.68585 9.15716 8.30564 8.38533 8.30564C7.61351 8.30564 6.98778 7.68585 6.98778 6.92136C6.98778 6.15688 7.61351 5.53709 8.38533 5.53709C9.15716 5.53709 9.78289 6.15688 9.78289 6.92136ZM12.578 8.30564C13.3498 8.30564 13.9756 7.68585 13.9756 6.92136C13.9756 6.15688 13.3498 5.53709 12.578 5.53709C11.8062 5.53709 11.1804 6.15688 11.1804 6.92136C11.1804 7.68585 11.8062 8.30564 12.578 8.30564Z" fill="black"/>
</svg>
