<?xml version="1.0" encoding="UTF-8"?>
<svg xmlns="http://www.w3.org/2000/svg" id="Layer_1" data-name="Layer 1" viewBox="0 0 24 24">
  <path d="M5,4.5c0-.276,.224-.5,.5-.5h2c.276,0,.5,.224,.5,.5s-.224,.5-.5,.5h-2c-.276,0-.5-.224-.5-.5ZM.5,5H2.5c.276,0,.5-.224,.5-.5s-.224-.5-.5-.5H.5c-.276,0-.5,.224-.5,.5s.224,.5,.5,.5Zm10,0h12.204l-3.145,3.144c-.195,.195-.195,.512,0,.707,.098,.098,.226,.146,.354,.146s.256-.049,.354-.146l3.299-3.298c.58-.581,.58-1.525,0-2.105L20.267,.149c-.195-.195-.512-.195-.707,0s-.195,.512,0,.707l3.144,3.144H10.5c-.276,0-.5,.224-.5,.5s.224,.5,.5,.5Zm13.5,10.5v4c0,2.481-2.019,4.5-4.5,4.5H4.5c-2.481,0-4.5-2.019-4.5-4.5v-4c0-2.481,2.019-4.5,4.5-4.5h15c2.481,0,4.5,2.019,4.5,4.5ZM4.5,23h7V12H4.5c-1.93,0-3.5,1.57-3.5,3.5v4c0,1.93,1.57,3.5,3.5,3.5Zm18.5-7.5c0-1.93-1.57-3.5-3.5-3.5h-7v11h7c1.93,0,3.5-1.57,3.5-3.5v-4Zm-2.806,4.493c-.007,.383-.247,.708-.611,.831-.416,.139-.854,.196-1.292,.171-1.777-.104-3.192-1.52-3.291-3.293-.055-.974,.283-1.899,.951-2.605,.912-.964,2.372-1.337,3.623-.922,.367,.122,.61,.449,.619,.835,.009,.387-.221,.727-.585,.865-.3,.114-.554,.304-.754,.564-.474,.616-.474,1.509,0,2.124h0c.2,.261,.454,.451,.754,.565,.364,.138,.594,.478,.586,.866Zm-1.198-.044c-.363-.184-.683-.449-.936-.777-.757-.984-.757-2.359,0-3.343,.253-.328,.573-.593,.936-.776-.164-.034-.332-.052-.501-.052-.694,0-1.34,.278-1.817,.783-.477,.504-.718,1.166-.679,1.862,.07,1.246,1.103,2.278,2.351,2.351,.218,.012,.436-.003,.646-.048Zm-9.568-.388c-.094,.156-.259,.242-.429,.242-.088,0-.176-.023-.257-.071l-.857-.515c-.018-.011-.028-.028-.044-.04-.353,.387-.819,.668-1.352,.774,.002,.017,.01,.032,.01,.05v1c0,.276-.224,.5-.5,.5s-.5-.224-.5-.5v-1c0-.018,.008-.032,.01-.05-.533-.106-.999-.387-1.352-.774-.016,.012-.026,.029-.044,.04l-.857,.515c-.081,.048-.169,.071-.257,.071-.17,0-.335-.086-.429-.242-.142-.237-.065-.544,.171-.687l.857-.515c.018-.011,.038-.012,.056-.02-.204-.522-.203-1.16,.001-1.682-.019-.008-.039-.005-.057-.016l-.857-.515c-.236-.143-.313-.45-.171-.687,.142-.236,.448-.313,.687-.171l.857,.515c.018,.011,.028,.028,.044,.04,.353-.387,.819-.668,1.352-.774-.002-.017-.01-.032-.01-.05v-1c0-.276,.224-.5,.5-.5s.5,.224,.5,.5v1c0,.018-.008,.032-.01,.05,.533,.106,.999,.387,1.352,.774,.016-.012,.026-.029,.044-.04l.857-.515c.237-.142,.544-.065,.687,.171,.142,.237,.065,.544-.171,.687l-.857,.515c-.018,.011-.039,.008-.057,.016,.204,.522,.205,1.16,.001,1.682,.018,.008,.038,.009,.056,.02l.857,.515c.236,.143,.313,.45,.171,.687Zm-1.929-2.061c0-.827-.673-1.5-1.5-1.5s-1.5,.673-1.5,1.5,.673,1.5,1.5,1.5,1.5-.673,1.5-1.5Z"/>
</svg>
