<svg width="32" height="22" viewBox="0 0 32 22" fill="none" xmlns="http://www.w3.org/2000/svg">
<path fill-rule="evenodd" clip-rule="evenodd" d="M21.5417 0.0749512C24.2963 0.0749512 26.5292 2.30793 26.5292 5.06245C26.5292 7.81697 24.2963 10.05 21.5417 10.05C18.7872 10.05 16.5542 7.81697 16.5542 5.06245C16.5542 2.30793 18.7872 0.0749512 21.5417 0.0749512ZM21.5417 2.13328C19.924 2.13328 18.6126 3.44472 18.6126 5.06245C18.6126 6.68019 19.924 7.99162 21.5417 7.99162C23.1595 7.99162 24.4709 6.68019 24.4709 5.06245C24.4709 3.44472 23.1595 2.13328 21.5417 2.13328ZM16.2299 3.47808C16.0804 3.98007 16.0001 4.51188 16.0001 5.06245C16.0001 5.61294 16.0803 6.14468 16.2299 6.64661L1.75008 6.64578C0.87563 6.64578 0.166748 5.9369 0.166748 5.06245C0.166748 4.188 0.87563 3.47912 1.75008 3.47912L16.2299 3.47808ZM26.8536 3.47808L30.2501 3.47912C31.1245 3.47912 31.8334 4.188 31.8334 5.06245C31.8334 5.9369 31.1245 6.64578 30.2501 6.64578L26.8537 6.64661C27.0031 6.14468 27.0834 5.61294 27.0834 5.06245C27.0834 4.51188 27.0031 3.98007 26.8536 3.47808ZM9.66675 11.95C12.4213 11.95 14.6542 14.1829 14.6542 16.9375C14.6542 19.692 12.4213 21.9249 9.66675 21.9249C6.91223 21.9249 4.67925 19.692 4.67925 16.9375C4.67925 14.1829 6.91223 11.95 9.66675 11.95ZM9.66675 14.0083C8.04901 14.0083 6.73758 15.3197 6.73758 16.9375C6.73758 18.5552 8.04901 19.8666 9.66675 19.8666C11.2845 19.8666 12.5959 18.5552 12.5959 16.9375C12.5959 15.3197 11.2845 14.0083 9.66675 14.0083ZM4.35488 15.3531C4.20537 15.8551 4.12508 16.3869 4.12508 16.9375C4.12508 17.4879 4.20535 18.0197 4.35481 18.5216L1.75008 18.5208C0.87563 18.5208 0.166748 17.8119 0.166748 16.9375C0.166748 16.063 0.87563 15.3541 1.75008 15.3541L4.35488 15.3531ZM14.9786 15.3531L30.2501 15.3541C31.1245 15.3541 31.8334 16.063 31.8334 16.9375C31.8334 17.8119 31.1245 18.5208 30.2501 18.5208L14.9786 18.5216C15.1281 18.0197 15.2084 17.4879 15.2084 16.9375C15.2084 16.3869 15.1281 15.8551 14.9786 15.3531Z" fill="#333333"/>
</svg>
