<svg width="17" height="19" viewBox="0 0 17 19" fill="none" xmlns="http://www.w3.org/2000/svg">
<path fill-rule="evenodd" clip-rule="evenodd" d="M8.29789 0C5.02889 0 2.37883 2.52399 2.37883 5.6375V8.05354C2.37883 8.92482 2.08213 9.77261 1.53326 10.4697L0.279848 12.0613C-0.199705 12.6704 -0.0595512 13.5044 0.674294 13.806C1.99488 14.3488 4.42764 15.0333 8.29789 15.0333C12.1682 15.0333 14.6009 14.3488 15.9214 13.806C16.6553 13.5044 16.7955 12.6704 16.3159 12.0613L15.0625 10.4697C14.5137 9.77261 14.217 8.92482 14.217 8.05354V5.6375C14.217 2.52399 11.5669 0 8.29789 0ZM8.29802 18.3219C7.06893 18.3219 6.04976 17.4655 5.86252 16.345C6.60162 16.4069 7.41214 16.4428 8.29802 16.4428C9.18381 16.4428 9.99443 16.4069 10.7335 16.345C10.5463 17.4655 9.52712 18.3219 8.29802 18.3219Z" fill="black"/>
</svg>
