<svg width="22" height="22" viewBox="0 0 22 22" fill="none" xmlns="http://www.w3.org/2000/svg">
<path fill-rule="evenodd" clip-rule="evenodd" d="M17.8827 15.5032L20.8308 18.4505C21.5287 19.1481 21.5287 20.2792 20.8308 20.9768C20.133 21.6744 19.0017 21.6744 18.3039 20.9768L15.3557 18.0295C15.1231 17.797 15.1231 17.4199 15.3557 17.1874L17.0404 15.5032C17.273 15.2707 17.6501 15.2707 17.8827 15.5032ZM9.58015 0.5C14.5144 0.5 18.5144 4.49884 18.5144 9.43167C18.5144 14.3645 14.5144 18.3633 9.58015 18.3633C4.64589 18.3633 0.645874 14.3645 0.645874 9.43167C0.645874 4.49884 4.64589 0.5 9.58015 0.5ZM9.58015 2.88178C5.96169 2.88178 3.02835 5.81426 3.02835 9.43167C3.02835 13.0491 5.96169 15.9816 9.58015 15.9816C13.1986 15.9816 16.132 13.0491 16.132 9.43167C16.132 5.81426 13.1986 2.88178 9.58015 2.88178ZM11.7479 3.88422C13.4502 4.54941 14.7621 5.96891 15.287 7.72244C15.4756 8.35255 15.1176 9.0162 14.4873 9.20476C13.8856 9.38474 13.2534 9.06678 13.0331 8.48948L13.0045 8.40527C12.6902 7.3552 11.901 6.50132 10.8805 6.10255C10.2678 5.8631 9.96523 5.1724 10.2047 4.55982C10.4443 3.94725 11.1352 3.64477 11.7479 3.88422Z" fill="#1E1F2E"/>
</svg>
