<svg width="22" height="19" viewBox="0 0 22 19" fill="none" xmlns="http://www.w3.org/2000/svg">
<path d="M7.34921 9.82495C6.79692 9.82495 6.34921 9.37724 6.34921 8.82495C6.34921 8.27267 6.79692 7.82495 7.34921 7.82495V9.82495ZM20.0476 8.82495L20.6736 8.04508C20.91 8.23488 21.0476 8.52173 21.0476 8.82495C21.0476 9.12818 20.91 9.41502 20.6736 9.60483L20.0476 8.82495ZM15.6053 6.54176C15.1746 6.19606 15.1057 5.56666 15.4514 5.13595C15.7971 4.70524 16.4265 4.63632 16.8572 4.98202L15.6053 6.54176ZM16.8572 12.6679C16.4265 13.0136 15.7971 12.9447 15.4514 12.514C15.1057 12.0832 15.1746 11.4538 15.6053 11.1081L16.8572 12.6679ZM12.535 17.1016V16.1016V17.1016ZM13.4031 16.2381L14.4031 16.2381V16.2381L13.4031 16.2381ZM1 16.2381L2 16.2381V16.2381L1 16.2381ZM1.86812 0.999983L1.86812 -1.71661e-05H1.86812V0.999983ZM1 1.86348H0H1ZM12.535 0.999983V1.99998V0.999983ZM13.4031 1.86348H14.4031H13.4031ZM12.4031 12.5959C12.4031 12.0436 12.8508 11.5959 13.4031 11.5959C13.9554 11.5959 14.4031 12.0436 14.4031 12.5959L12.4031 12.5959ZM14.4031 5.37579C14.4031 5.92807 13.9554 6.37579 13.4031 6.37579C12.8508 6.37579 12.4031 5.92807 12.4031 5.37579H14.4031ZM7.34921 7.82495H20.0476V9.82495H7.34921V7.82495ZM19.4217 9.60483L15.6053 6.54176L16.8572 4.98202L20.6736 8.04508L19.4217 9.60483ZM20.6736 9.60483L16.8572 12.6679L15.6053 11.1081L19.4217 8.04508L20.6736 9.60483ZM12.535 16.1016C12.4672 16.1016 12.4031 16.1576 12.4031 16.2381L14.4031 16.2381C14.4031 17.2723 13.5617 18.1016 12.535 18.1016V16.1016ZM1.86812 16.1016L12.535 16.1016V18.1016L1.86812 18.1016L1.86812 16.1016ZM2 16.2381C2 16.1576 1.93591 16.1016 1.86812 16.1016L1.86812 18.1016C0.841432 18.1016 2.20537e-06 17.2723 2.14577e-06 16.2381L2 16.2381ZM1.86812 1.99998C1.93591 1.99998 2 1.9439 2 1.86348H0C0 0.829275 0.841423 -1.71661e-05 1.86812 -1.71661e-05L1.86812 1.99998ZM12.535 1.99998H1.86812V-1.71661e-05H12.535V1.99998ZM12.4031 1.86348C12.4031 1.9439 12.4672 1.99998 12.535 1.99998V-1.71661e-05C13.5617 -1.71661e-05 14.4031 0.829271 14.4031 1.86348H12.4031ZM2 1.86348L2 16.2381L2.14577e-06 16.2381L0 1.86348H2ZM12.4031 16.2381L12.4031 12.5959L14.4031 12.5959L14.4031 16.2381L12.4031 16.2381ZM12.4031 5.37579V1.86348H14.4031V5.37579H12.4031Z" fill="#2260FF"/>
</svg>
