<svg width="18" height="18" viewBox="0 0 18 18" fill="none" xmlns="http://www.w3.org/2000/svg">
<path d="M9 0C4.12111 0 0 3.74112 0 8.47266C0 11.0083 1.22346 13.3272 3.19922 14.9062V17.4727C3.19922 17.6564 3.2948 17.8268 3.45163 17.9227C3.60667 18.0173 3.80182 18.0266 3.96716 17.9419L6.58466 16.6003C7.36771 16.8059 8.17918 16.9102 9 16.9102C13.9627 16.9102 18 13.1251 18 8.47266C18 3.73878 13.8763 0 9 0ZM9 15.8555C8.20638 15.8555 7.42305 15.7462 6.672 15.5307C6.54318 15.4936 6.40517 15.5071 6.2861 15.5682L4.25391 16.6098V14.6479C4.25391 14.482 4.1759 14.3259 4.04338 14.2263C2.14398 12.7989 1.05469 10.7018 1.05469 8.47266C1.05469 4.38231 4.61893 1.05469 9 1.05469C13.3811 1.05469 16.9453 4.38231 16.9453 8.47266C16.9453 12.5435 13.3811 15.8555 9 15.8555Z" fill="white"/>
</svg>
