<svg width="19" height="22" viewBox="0 0 19 22" fill="none" xmlns="http://www.w3.org/2000/svg">
<path d="M13.8376 3.80318H13.3376V3.80318L13.8376 3.80318ZM15.0812 4.93954V4.43954L15.0807 4.43954L15.0812 4.93954ZM17.6645 4.49695L18.0027 4.1287L17.6645 4.49695ZM14.9692 2.02561L14.6318 2.39461L14.9692 2.02561ZM5.05195 7.35231C4.77581 7.35231 4.55195 7.57616 4.55195 7.85231C4.55195 8.12845 4.77581 8.35231 5.05195 8.35231V7.35231ZM14.7143 8.35231C14.9904 8.35231 15.2143 8.12845 15.2143 7.85231C15.2143 7.57616 14.9904 7.35231 14.7143 7.35231V8.35231ZM5.05195 10.938C4.77581 10.938 4.55195 11.1619 4.55195 11.438C4.55195 11.7142 4.77581 11.938 5.05195 11.938V10.938ZM14.7143 11.938C14.9904 11.938 15.2143 11.7142 15.2143 11.438C15.2143 11.1619 14.9904 10.938 14.7143 10.938V11.938ZM5.05195 14.225C4.77581 14.225 4.55195 14.4488 4.55195 14.725C4.55195 15.0011 4.77581 15.225 5.05195 15.225V14.225ZM14.7143 15.225C14.9904 15.225 15.2143 15.0011 15.2143 14.725C15.2143 14.4488 14.9904 14.225 14.7143 14.225V15.225ZM2.24224 1.5H12.2791V0.5H2.24224V1.5ZM17.6429 5.57379V19.8636H18.6429V5.57379H17.6429ZM16.9006 20.5H2.24224V21.5H16.9006V20.5ZM1.5 19.8636V2.13636H0.5V19.8636H1.5ZM2.24224 20.5C1.78945 20.5 1.5 20.1741 1.5 19.8636H0.5C0.5 20.8084 1.32288 21.5 2.24224 21.5V20.5ZM17.6429 19.8636C17.6429 20.1741 17.3534 20.5 16.9006 20.5V21.5C17.82 21.5 18.6429 20.8084 18.6429 19.8636H17.6429ZM14.6318 2.39461C15.5087 3.19641 16.6801 4.27175 17.3263 4.86521L18.0027 4.1287C17.3566 3.53523 16.1844 2.45923 15.3066 1.65661L14.6318 2.39461ZM2.24224 0.5C1.32288 0.5 0.5 1.19163 0.5 2.13636H1.5C1.5 1.8259 1.78945 1.5 2.24224 1.5V0.5ZM14.3376 3.80318V1.34828H13.3376V3.80318H14.3376ZM17.996 4.43954H15.0812V5.43954H17.996V4.43954ZM13.3376 3.80318C13.3376 4.74868 14.1617 5.4405 15.0817 5.43954L15.0807 4.43954C14.6275 4.44001 14.3376 4.11388 14.3376 3.80318L13.3376 3.80318ZM18.6429 5.57379C18.6429 5.02396 18.4106 4.50326 18.0027 4.1287L17.3263 4.86521C17.5319 5.05402 17.6429 5.30925 17.6429 5.57379H18.6429ZM12.2791 1.5C12.6318 1.5 13.0869 1.59597 13.5356 1.7666C13.9852 1.93754 14.3813 2.16555 14.6318 2.39461L15.3066 1.65661C14.9343 1.31618 14.4157 1.03138 13.8911 0.831893C13.3656 0.632087 12.7872 0.5 12.2791 0.5V1.5ZM5.05195 8.35231H14.7143V7.35231H5.05195V8.35231ZM5.05195 11.938H14.7143V10.938H5.05195V11.938ZM5.05195 15.225H14.7143V14.225H5.05195V15.225Z" fill="#CAD6FF"/>
</svg>
