<svg width="18" height="18" viewBox="0 0 18 18" fill="none" xmlns="http://www.w3.org/2000/svg">
<path d="M3.64762 11.9652C5.42973 14.0874 7.57501 15.7584 10.0235 16.9407C10.9558 17.3809 12.2025 17.903 13.5915 17.9925C13.6776 17.9963 13.76 18 13.8461 18C14.7783 18 15.5271 17.6792 16.1374 17.0191C16.1411 17.0153 16.1486 17.0079 16.1524 17.0004C16.3695 16.7393 16.6166 16.5044 16.8749 16.2545C17.0509 16.0866 17.2306 15.9113 17.4028 15.7323C18.2003 14.9043 18.2003 13.8525 17.3954 13.0506L15.1452 10.809C14.7634 10.4136 14.3066 10.2047 13.8274 10.2047C13.3482 10.2047 12.8877 10.4136 12.4945 10.8052L11.1542 12.1405C11.0307 12.0696 10.9034 12.0062 10.7836 11.9465C10.6338 11.8719 10.4953 11.8011 10.3717 11.7228C9.1512 10.9507 8.043 9.94364 6.98347 8.6494C6.44808 7.97431 6.08867 7.40738 5.83782 6.82926C6.18975 6.51223 6.51922 6.18027 6.83745 5.85578C6.94977 5.74016 7.06583 5.62453 7.18189 5.50891C7.58624 5.10609 7.80339 4.63987 7.80339 4.16618C7.80339 3.6925 7.58998 3.22627 7.18189 2.82346L6.0662 1.71198C5.93516 1.58143 5.81161 1.45462 5.68432 1.32408C5.43722 1.07045 5.17889 0.809366 4.9243 0.574389C4.53868 0.197679 4.08566 0 3.60644 0C3.13096 0 2.6742 0.197679 2.27359 0.578119L0.873363 1.97306C0.364187 2.48031 0.0759042 3.09573 0.0160013 3.80812C-0.0551335 4.69954 0.1096 5.64691 0.536408 6.79196C1.1916 8.56361 2.18 10.2085 3.64762 11.9652ZM0.929522 3.88645C0.974449 3.39039 1.16539 2.97638 1.52481 2.61832L2.91755 1.23083C3.1347 1.02196 3.37431 0.9138 3.60644 0.9138C3.83482 0.9138 4.06694 1.02196 4.28034 1.23829C4.53119 1.46954 4.76706 1.71198 5.02164 1.96933C5.14894 2.09988 5.27997 2.23042 5.41101 2.36469L6.52671 3.47617C6.75883 3.70742 6.87864 3.9424 6.87864 4.17364C6.87864 4.40489 6.75883 4.63987 6.52671 4.87111C6.41064 4.98674 6.29458 5.10609 6.17852 5.22172C5.83033 5.57232 5.50461 5.90427 5.14519 6.2213C5.13771 6.22876 5.13396 6.23249 5.12647 6.23995C4.81573 6.54952 4.8644 6.84418 4.93928 7.06797C4.94302 7.07915 4.94676 7.08661 4.95051 7.0978C5.23879 7.78782 5.63939 8.44426 6.26463 9.22752C7.38781 10.6075 8.57089 11.678 9.87378 12.5023C10.0348 12.6067 10.207 12.6888 10.368 12.7708C10.5177 12.8454 10.6563 12.9163 10.7798 12.9946C10.7948 13.0021 10.806 13.0095 10.821 13.017C10.9445 13.0804 11.0644 13.1102 11.1842 13.1102C11.4837 13.1102 11.6784 12.92 11.742 12.8566L13.1422 11.4617C13.3594 11.2453 13.5953 11.1297 13.8274 11.1297C14.1119 11.1297 14.344 11.305 14.4901 11.4617L16.7477 13.707C17.1969 14.1546 17.1932 14.6395 16.7364 15.1131C16.5792 15.281 16.4144 15.4414 16.2385 15.6092C15.9764 15.8628 15.7031 16.1239 15.456 16.4186C15.0254 16.8811 14.5125 17.0974 13.8498 17.0974C13.7862 17.0974 13.7188 17.0937 13.6552 17.0899C12.4271 17.0116 11.2852 16.5342 10.4279 16.1276C8.09916 15.005 6.05497 13.4123 4.35897 11.3908C2.96248 9.71612 2.02275 8.15707 1.40126 6.48612C1.01563 5.46042 0.869619 4.63614 0.929522 3.88645Z" fill="white"/>
</svg>
