<svg width="20" height="20" viewBox="0 0 20 20" fill="none" xmlns="http://www.w3.org/2000/svg">
<path fill-rule="evenodd" clip-rule="evenodd" d="M14.9163 13.2166L17.0221 15.3218C17.5205 15.8201 17.5205 16.628 17.0221 17.1263C16.5237 17.6246 15.7155 17.6246 15.2171 17.1263L13.1113 15.0211C12.9451 14.855 12.9451 14.5857 13.1113 14.4196L14.3146 13.2166C14.4807 13.0505 14.7501 13.0505 14.9163 13.2166ZM8.98588 2.5C12.5104 2.5 15.3675 5.35632 15.3675 8.87976C15.3675 12.4032 12.5104 15.2595 8.98588 15.2595C5.4614 15.2595 2.60425 12.4032 2.60425 8.87976C2.60425 5.35632 5.4614 2.5 8.98588 2.5ZM8.98588 4.20127C6.40126 4.20127 4.30602 6.2959 4.30602 8.87976C4.30602 11.4636 6.40126 13.5583 8.98588 13.5583C11.5705 13.5583 13.6657 11.4636 13.6657 8.87976C13.6657 6.2959 11.5705 4.20127 8.98588 4.20127ZM10.5343 4.9173C11.7502 5.39243 12.6873 6.40637 13.0622 7.65889C13.1969 8.10896 12.9412 8.583 12.491 8.71768C12.0612 8.84625 11.6096 8.61913 11.4523 8.20677L11.4319 8.14662C11.2073 7.39657 10.6436 6.78666 9.91473 6.50182C9.47705 6.33078 9.26093 5.83743 9.43201 5.39987C9.6031 4.96232 10.0966 4.74627 10.5343 4.9173Z" fill="#1E1F2E"/>
</svg>
