<svg width="27" height="27" viewBox="0 0 27 27" fill="none" xmlns="http://www.w3.org/2000/svg">
<path d="M11.03 1.57153V0.571533C10.4777 0.571533 10.03 1.01925 10.03 1.57153L11.03 1.57153ZM15.9224 1.57153H16.9224C16.9224 1.01925 16.4746 0.571533 15.9224 0.571533V1.57153ZM15.9224 25.3811V26.3811C16.4746 26.3811 16.9224 25.9333 16.9224 25.3811H15.9224ZM11.03 25.3811H10.03C10.03 25.9333 10.4777 26.3811 11.03 26.3811V25.3811ZM25.3809 11.0301H26.3809C26.3809 10.4778 25.9332 10.0301 25.3809 10.0301L25.3809 11.0301ZM25.3809 15.9225V16.9225C25.6462 16.9225 25.9005 16.8171 26.088 16.6296C26.2756 16.4421 26.3809 16.1877 26.3809 15.9225H25.3809ZM1.57141 15.9225H0.571411C0.571411 16.4748 1.01913 16.9225 1.57141 16.9225L1.57141 15.9225ZM1.57141 11.0301L1.57141 10.0301C1.30619 10.0301 1.05184 10.1355 0.864304 10.323C0.676768 10.5105 0.571411 10.7649 0.571411 11.0301H1.57141ZM20.1644 3.32864L20.8715 2.62154C20.4826 2.2326 19.8525 2.23079 19.4614 2.61749L20.1644 3.32864ZM23.6238 6.78807L24.335 7.4911C24.7217 7.09994 24.7199 6.4699 24.3309 6.08096L23.6238 6.78807ZM6.78795 23.6239L6.08084 24.3311C6.46995 24.7202 7.10031 24.7218 7.49141 24.3347L6.78795 23.6239ZM3.32852 20.1645L2.61779 19.4611C2.23069 19.8522 2.23231 20.4825 2.62142 20.8716L3.32852 20.1645ZM23.6238 20.1645L24.3309 20.8716C24.7163 20.4863 24.7221 19.8633 24.344 19.4708L23.6238 20.1645ZM20.1644 23.6239L19.4515 24.3252C19.6384 24.5153 19.8936 24.6228 20.1603 24.6239C20.4269 24.625 20.683 24.5196 20.8715 24.3311L20.1644 23.6239ZM3.32852 6.78807L2.62142 6.08096C2.43388 6.2685 2.32852 6.52285 2.32852 6.78807C2.32852 7.05329 2.43388 7.30764 2.62142 7.49518L3.32852 6.78807ZM6.78795 3.32864L7.49506 2.62154C7.10453 2.23101 6.47137 2.23101 6.08085 2.62154L6.78795 3.32864ZM21.3668 15.9225V14.9225H20.6489L20.4193 15.6027L21.3668 15.9225ZM20.7942 17.2271L19.9173 16.7464L19.5638 17.3913L20.074 17.9209L20.7942 17.2271ZM17.227 20.6375L17.9399 19.9363L17.434 19.4219L16.7864 19.7398L17.227 20.6375ZM15.9224 21.1432L15.6429 20.1831L14.9224 20.3928V21.1432H15.9224ZM11.03 21.0407H12.03V20.3229L11.3498 20.0933L11.03 21.0407ZM9.88844 20.5552L10.3491 19.6676L9.70262 19.3321L9.18497 19.8444L9.88844 20.5552ZM6.39731 17.064L7.10804 17.7675L7.62039 17.2498L7.28489 16.6034L6.39731 17.064ZM5.91172 15.9225L6.8592 15.6027L6.62962 14.9225L5.91172 14.9225L5.91172 15.9225ZM5.80926 11.0301V12.0301H6.55967L6.7694 11.3096L5.80926 11.0301ZM6.2989 9.75844L7.1986 10.195L7.50928 9.55461L7.00601 9.05134L6.2989 9.75844ZM9.65603 6.19672L8.94892 6.90383L9.48456 7.43947L10.1452 7.06888L9.65603 6.19672ZM11.03 5.58569L11.3498 6.53317L12.03 6.30358V5.58569H11.03ZM15.9224 5.48322H14.9224V6.23364L15.6429 6.44337L15.9224 5.48322ZM17.3901 6.07127L16.9294 6.95886L17.5755 7.29414L18.0931 6.78243L17.3901 6.07127ZM20.8812 9.5624L20.17 8.85937L19.6583 9.377L19.9936 10.023L20.8812 9.5624ZM21.4692 11.0301L20.5091 11.3096L20.7188 12.0301L21.4692 12.0301L21.4692 11.0301ZM11.03 2.57153H15.9224V0.571533H11.03V2.57153ZM15.9224 24.3811H11.03V26.3811H15.9224V24.3811ZM24.3809 11.0301V15.9225H26.3809V11.0301H24.3809ZM2.57141 15.9225V11.0301H0.571411V15.9225H2.57141ZM19.4573 4.03575L22.9167 7.49518L24.3309 6.08096L20.8715 2.62154L19.4573 4.03575ZM7.49506 22.9168L4.03563 19.4574L2.62142 20.8716L6.08084 24.3311L7.49506 22.9168ZM22.9167 19.4574L19.4573 22.9168L20.8715 24.3311L24.3309 20.8716L22.9167 19.4574ZM4.03563 7.49518L7.49506 4.03575L6.08085 2.62154L2.62142 6.08096L4.03563 7.49518ZM20.4193 15.6027C20.285 16.0006 20.1165 16.383 19.9173 16.7464L21.6711 17.7078C21.9261 17.2426 22.142 16.7526 22.3143 16.2423L20.4193 15.6027ZM16.7864 19.7398C16.4215 19.9188 16.0393 20.0677 15.6429 20.1831L16.2018 22.1034C16.7102 21.9554 17.2001 21.7646 17.6676 21.5352L16.7864 19.7398ZM11.3498 20.0933C11.0037 19.9764 10.6694 19.8338 10.3491 19.6676L9.4278 21.4428C9.83797 21.6556 10.2664 21.8384 10.7102 21.9882L11.3498 20.0933ZM7.28489 16.6034C7.11867 16.2831 6.97602 15.9488 6.8592 15.6027L4.96424 16.2423C5.11403 16.6861 5.29685 17.1145 5.50972 17.5247L7.28489 16.6034ZM6.7694 11.3096C6.88175 10.9236 7.0258 10.5511 7.1986 10.195L5.3992 9.32193C5.17784 9.77819 4.99317 10.2557 4.84911 10.7506L6.7694 11.3096ZM10.1452 7.06888C10.5267 6.85491 10.9296 6.675 11.3498 6.53317L10.7102 4.6382C10.1714 4.82007 9.65516 5.05063 9.16681 5.32455L10.1452 7.06888ZM15.6429 6.44337C16.0914 6.57392 16.5218 6.74729 16.9294 6.95886L17.8507 5.18368C17.3286 4.91274 16.777 4.69049 16.2018 4.52307L15.6429 6.44337ZM19.9936 10.023C20.2052 10.4307 20.3785 10.8611 20.5091 11.3096L22.4294 10.7506C22.262 10.1755 22.0397 9.62383 21.7688 9.10176L19.9936 10.023ZM12.03 5.58569V1.57153H10.03V5.58569H12.03ZM14.9224 1.57153V5.48322H16.9224V1.57153H14.9224ZM6.08085 4.03575L8.94892 6.90383L10.3631 5.48961L7.49506 2.62154L6.08085 4.03575ZM7.00601 9.05134L4.03563 6.08096L2.62142 7.49518L5.59179 10.4656L7.00601 9.05134ZM18.0931 6.78243L20.8674 4.0398L19.4614 2.61749L16.687 5.36011L18.0931 6.78243ZM22.9127 6.08504L20.17 8.85937L21.5924 10.2654L24.335 7.4911L22.9127 6.08504ZM21.4692 12.0301H25.3809L25.3809 10.0301H21.4692L21.4692 12.0301ZM25.3809 14.9225L21.3668 14.9225V16.9225L25.3809 16.9225L25.3809 14.9225ZM20.074 17.9209L22.9036 20.8583L24.344 19.4708L21.5144 16.5333L20.074 17.9209ZM20.8773 22.9227L17.9399 19.9363L16.5141 21.3387L19.4515 24.3252L20.8773 22.9227ZM14.9224 21.1432V25.3811H16.9224V21.1432H14.9224ZM12.03 25.3811V21.0407H10.03V25.3811H12.03ZM9.18497 19.8444L6.08449 22.9132L7.49141 24.3347L10.5919 21.2659L9.18497 19.8444ZM4.03925 20.868L7.10804 17.7675L5.68657 16.3606L2.61779 19.4611L4.03925 20.868ZM5.91172 14.9225L1.57141 14.9225L1.57141 16.9225L5.91172 16.9225L5.91172 14.9225ZM1.57141 12.0301H5.80926V10.0301H1.57141L1.57141 12.0301ZM15.8746 12.9532C16.1431 14.295 15.2812 15.548 13.9598 15.7761L14.3 17.7469C16.744 17.3251 18.3223 14.9924 17.8357 12.5608L15.8746 12.9532ZM13.9598 15.7761C12.6175 16.0077 11.2904 15.099 11.0179 13.7374L9.05682 14.1298C9.53945 16.5416 11.8769 18.1651 14.3 17.7469L13.9598 15.7761ZM11.0179 13.7374C10.7494 12.3956 11.6114 11.1426 12.9327 10.9145L12.5926 8.94367C10.1485 9.36547 8.57021 11.6982 9.05682 14.1298L11.0179 13.7374ZM12.9327 10.9145C14.275 10.6829 15.6021 11.5916 15.8746 12.9532L17.8357 12.5608C17.3531 10.149 15.0156 8.52551 12.5926 8.94367L12.9327 10.9145Z" fill="#2260FF"/>
</svg>
