<svg width="12" height="12" viewBox="0 0 12 12" fill="none" xmlns="http://www.w3.org/2000/svg">
<g clip-path="url(#clip0_6322_714)">
<path opacity="0.4" d="M6.83772 1.94321L7.87097 4.01961C7.9471 4.17004 8.09238 4.27451 8.25995 4.29773L10.5808 4.63575C10.7164 4.65478 10.8394 4.72629 10.9225 4.8354C11.0046 4.94312 11.0399 5.07963 11.0199 5.21381C11.0037 5.32525 10.9512 5.42833 10.8709 5.50726L9.18923 7.13745C9.06622 7.25121 9.01052 7.41975 9.04023 7.58458L9.45427 9.87642C9.49837 10.1531 9.31502 10.4141 9.04023 10.4666C8.92697 10.4847 8.81092 10.4656 8.70881 10.4136L6.63859 9.33504C6.48495 9.2575 6.30345 9.2575 6.14981 9.33504L4.0796 10.4136C3.82523 10.5487 3.51005 10.4568 3.36848 10.2061C3.31603 10.1063 3.29746 9.9925 3.31464 9.88153L3.72868 7.58923C3.75839 7.42486 3.70222 7.25539 3.57968 7.14163L1.89798 5.51237C1.69792 5.31921 1.69188 5.00116 1.88452 4.80104C1.88869 4.79686 1.89334 4.79222 1.89798 4.78758C1.97781 4.70632 2.08272 4.65478 2.19598 4.64132L4.51685 4.30284C4.68395 4.27916 4.82924 4.17562 4.90583 4.02425L5.90194 1.94321C5.9906 1.76491 6.17441 1.65394 6.37401 1.65859H6.43621C6.60935 1.67948 6.7602 1.78674 6.83772 1.94321" fill="#246BFD"/>
<path d="M6.38093 9.27721C6.29104 9.28 6.20347 9.30415 6.1247 9.34735L4.0646 10.4235C3.81254 10.5438 3.51089 10.4504 3.36957 10.2094C3.31721 10.1109 3.29821 9.99805 3.31582 9.88751L3.72728 7.60006C3.75508 7.43379 3.69948 7.26473 3.57854 7.14768L1.89608 5.51884C1.69638 5.3233 1.69267 5.00237 1.88821 4.80219C1.89099 4.7994 1.8933 4.79708 1.89608 4.79475C1.97578 4.7158 2.07865 4.66378 2.18939 4.64752L4.51221 4.30568C4.68041 4.28432 4.82637 4.17935 4.9005 4.02701L5.91016 1.91978C6.00608 1.74979 6.19003 1.64853 6.38464 1.65922C6.38094 1.79716 6.38093 9.18339 6.38093 9.27721" fill="#246BFD"/>
</g>
<defs>
<clipPath id="clip0_6322_714">
<rect width="11.1378" height="11.1378" fill="white" transform="translate(0.815918 0.498047)"/>
</clipPath>
</defs>
</svg>
